<mxfile host="app.diagrams.net" agent="GPT-Assistant" version="22.0.8" editor="www.draw.io" type="device">
  <diagram id="gF3E1QmXc9" name="UML - Red social Blissard">
    <mxGraphModel dx="1200" dy="800" grid="1" gridSize="10" guides="1" tooltips="1" connect="1" arrows="1" fold="1" page="1" pageScale="1" pageWidth="1100" pageHeight="850" math="0">
      <root>
        <mxCell id="0"/>
        <mxCell id="1" parent="0"/>
        
        <!-- Class: Perfil -->
        <mxCell id="perfil" value="&lt;b&gt;Perfil&lt;/b&gt;&#xa;———&#xa;&lt;b&gt;Atributos&lt;/b&gt;:&#xa;+ username: String&#xa;+ fechaInscripcion: Date&#xa;+ juegos: List&lt;Juego&gt;&#xa;+ amigos: List&lt;Perfil&gt;&#xa;&#xa;&lt;b&gt;Metodos&lt;/b&gt;:&#xa;+ agregarAmigo(p: Perfil): void&#xa;+ eliminarAmigo(p: Perfil): void&#xa;+ enviarMensaje(a: Perfil, texto: String): void&#xa;+ top3PorCompletitud(): List&lt;Juego&gt;" style="rounded=1;whiteSpace=wrap;html=1;fillColor=#ffffff;strokeColor=#000000;fontSize=12;" vertex="1" parent="1">
          <mxGeometry x="120" y="140" width="360" height="280" as="geometry"/>
        </mxCell>
        
        <!-- Class: Juego -->
        <mxCell id="juego" value="&lt;b&gt;Juego&lt;/b&gt;&#xa;———&#xa;&lt;b&gt;Atributos&lt;/b&gt;:&#xa;+ nombre: String&#xa;+ horas: double&#xa;+ logros: int" style="rounded=1;whiteSpace=wrap;html=1;fillColor=#ffffff;strokeColor=#000000;fontSize=12;" vertex="1" parent="1">
          <mxGeometry x="640" y="180" width="280" height="200" as="geometry"/>
        </mxCell>
        
        <!-- Association: Perfil tiene Juegos (1 -- 0..*) -->
        <mxCell id="edge1" value="1 — 0..* (tiene)" style="endArrow=none;strokeWidth=1;rounded=0;html=1;fontSize=12;" edge="1" parent="1" source="perfil" target="juego">
          <mxGeometry relative="1" as="geometry">
            <mxPoint x="480" y="220" as="targetPoint"/>
          </mxGeometry>
        </mxCell>
        
        <!-- Self-association: amigos (0..* -- 0..*) -->
        <mxCell id="edge2" value="0..* — 0..* (amigos)" style="endArrow=none;edgeStyle=loopEdgeStyle;strokeWidth=1;fontSize=12;" edge="1" parent="1" source="perfil" target="perfil">
          <mxGeometry relative="1" as="geometry">
            <mxPoint x="90" y="160" as="targetPoint"/>
            <Array as="points">
              <mxPoint x="80" y="140"/>
              <mxPoint x="80" y="380"/>
            </Array>
          </mxGeometry>
        </mxCell>
        
      </root>
    </mxGraphModel>
  </diagram>
</mxfile>
